<mxfile host="Electron" modified="2023-05-21T12:44:38.453Z" agent="Mozilla/5.0 (Macintosh; Intel Mac OS X 10_15_7) AppleWebKit/537.36 (KHTML, like Gecko) draw.io/21.2.8 Chrome/112.0.5615.165 Electron/24.2.0 Safari/537.36" etag="LR6QPzk2mpaGUxRgTYPY" version="21.2.8" type="device" pages="3">
  <diagram name="Гость" id="PiSzpXnKiG2aHi8jO2FS">
    <mxGraphModel dx="1026" dy="673" grid="1" gridSize="10" guides="1" tooltips="1" connect="1" arrows="1" fold="1" page="1" pageScale="1" pageWidth="1200" pageHeight="1920" math="0" shadow="0">
      <root>
        <mxCell id="0" />
        <mxCell id="1" parent="0" />
        <mxCell id="bpIeN8BZK3KjaufoFO49-1" value="Гость" style="shape=umlActor;verticalLabelPosition=bottom;verticalAlign=top;html=1;outlineConnect=0;" vertex="1" parent="1">
          <mxGeometry x="110" y="270" width="100" height="200" as="geometry" />
        </mxCell>
        <mxCell id="bpIeN8BZK3KjaufoFO49-4" value="Авторизация" style="ellipse;whiteSpace=wrap;html=1;" vertex="1" parent="1">
          <mxGeometry x="370" y="200" width="120" height="80" as="geometry" />
        </mxCell>
        <mxCell id="bpIeN8BZK3KjaufoFO49-5" value="Регистрация" style="ellipse;whiteSpace=wrap;html=1;" vertex="1" parent="1">
          <mxGeometry x="370" y="450" width="120" height="80" as="geometry" />
        </mxCell>
        <mxCell id="bpIeN8BZK3KjaufoFO49-6" value="" style="endArrow=none;html=1;rounded=0;entryX=0;entryY=0.5;entryDx=0;entryDy=0;" edge="1" parent="1" target="bpIeN8BZK3KjaufoFO49-4">
          <mxGeometry width="50" height="50" relative="1" as="geometry">
            <mxPoint x="220" y="360" as="sourcePoint" />
            <mxPoint x="280" y="310" as="targetPoint" />
          </mxGeometry>
        </mxCell>
        <mxCell id="bpIeN8BZK3KjaufoFO49-7" value="" style="endArrow=none;html=1;rounded=0;entryX=0;entryY=0.5;entryDx=0;entryDy=0;" edge="1" parent="1" target="bpIeN8BZK3KjaufoFO49-5">
          <mxGeometry width="50" height="50" relative="1" as="geometry">
            <mxPoint x="220" y="360" as="sourcePoint" />
            <mxPoint x="330" y="345" as="targetPoint" />
          </mxGeometry>
        </mxCell>
      </root>
    </mxGraphModel>
  </diagram>
  <diagram id="h0hEfiqRJxUmvRfBIlJ2" name="Пользователь">
    <mxGraphModel dx="1026" dy="673" grid="1" gridSize="10" guides="1" tooltips="1" connect="1" arrows="1" fold="1" page="1" pageScale="1" pageWidth="1200" pageHeight="1920" math="0" shadow="0">
      <root>
        <mxCell id="0" />
        <mxCell id="1" parent="0" />
        <mxCell id="h0c5gJUUwGMUVo_cbMtu-1" value="Пользователь" style="shape=umlActor;verticalLabelPosition=bottom;verticalAlign=top;html=1;outlineConnect=0;" vertex="1" parent="1">
          <mxGeometry x="110" y="650" width="100" height="200" as="geometry" />
        </mxCell>
        <mxCell id="QiMk7XT3YdcXkGUOzaD9-1" value="" style="endArrow=none;html=1;rounded=0;entryX=0;entryY=0.5;entryDx=0;entryDy=0;" edge="1" parent="1" target="uijnXT37XZ_vpNT8AWCY-1">
          <mxGeometry width="50" height="50" relative="1" as="geometry">
            <mxPoint x="230" y="720" as="sourcePoint" />
            <mxPoint x="270" y="320" as="targetPoint" />
          </mxGeometry>
        </mxCell>
        <mxCell id="uijnXT37XZ_vpNT8AWCY-1" value="Туториал при первой авторизации" style="ellipse;whiteSpace=wrap;html=1;" vertex="1" parent="1">
          <mxGeometry x="310" y="90" width="120" height="80" as="geometry" />
        </mxCell>
        <mxCell id="uijnXT37XZ_vpNT8AWCY-2" value="Туториал после обновления приложения" style="ellipse;whiteSpace=wrap;html=1;" vertex="1" parent="1">
          <mxGeometry x="310" y="210" width="120" height="80" as="geometry" />
        </mxCell>
        <mxCell id="uijnXT37XZ_vpNT8AWCY-3" value="Оповещение об изменении цены" style="ellipse;whiteSpace=wrap;html=1;" vertex="1" parent="1">
          <mxGeometry x="310" y="330" width="120" height="80" as="geometry" />
        </mxCell>
        <mxCell id="uijnXT37XZ_vpNT8AWCY-4" value="Создание списка отслеживаемого" style="ellipse;whiteSpace=wrap;html=1;" vertex="1" parent="1">
          <mxGeometry x="310" y="450" width="120" height="80" as="geometry" />
        </mxCell>
        <mxCell id="uijnXT37XZ_vpNT8AWCY-5" value="Подробный экспорт данных" style="ellipse;whiteSpace=wrap;html=1;" vertex="1" parent="1">
          <mxGeometry x="310" y="570" width="120" height="80" as="geometry" />
        </mxCell>
        <mxCell id="uijnXT37XZ_vpNT8AWCY-6" value="Создание графиков" style="ellipse;whiteSpace=wrap;html=1;" vertex="1" parent="1">
          <mxGeometry x="310" y="690" width="120" height="80" as="geometry" />
        </mxCell>
        <mxCell id="uijnXT37XZ_vpNT8AWCY-7" value="Настройка фильтрации для поиска предметов" style="ellipse;whiteSpace=wrap;html=1;" vertex="1" parent="1">
          <mxGeometry x="310" y="810" width="120" height="80" as="geometry" />
        </mxCell>
        <mxCell id="uijnXT37XZ_vpNT8AWCY-8" value="Импортирование списка отслеживаемого" style="ellipse;whiteSpace=wrap;html=1;" vertex="1" parent="1">
          <mxGeometry x="310" y="930" width="120" height="80" as="geometry" />
        </mxCell>
        <mxCell id="uijnXT37XZ_vpNT8AWCY-9" value="Экспорт списка отслеживаемого" style="ellipse;whiteSpace=wrap;html=1;" vertex="1" parent="1">
          <mxGeometry x="310" y="1050" width="120" height="80" as="geometry" />
        </mxCell>
        <mxCell id="uijnXT37XZ_vpNT8AWCY-10" value="Кастомизация пользовательского интерфейса" style="ellipse;whiteSpace=wrap;html=1;" vertex="1" parent="1">
          <mxGeometry x="310" y="1170" width="120" height="80" as="geometry" />
        </mxCell>
        <mxCell id="uijnXT37XZ_vpNT8AWCY-11" value="Оформление платной подписки" style="ellipse;whiteSpace=wrap;html=1;" vertex="1" parent="1">
          <mxGeometry x="310" y="1290" width="120" height="80" as="geometry" />
        </mxCell>
        <mxCell id="uijnXT37XZ_vpNT8AWCY-12" value="" style="endArrow=none;html=1;rounded=0;entryX=0;entryY=0.5;entryDx=0;entryDy=0;" edge="1" parent="1" target="uijnXT37XZ_vpNT8AWCY-2">
          <mxGeometry width="50" height="50" relative="1" as="geometry">
            <mxPoint x="230" y="720" as="sourcePoint" />
            <mxPoint x="270" y="330" as="targetPoint" />
          </mxGeometry>
        </mxCell>
        <mxCell id="uijnXT37XZ_vpNT8AWCY-13" value="" style="endArrow=none;html=1;rounded=0;entryX=0;entryY=0.5;entryDx=0;entryDy=0;" edge="1" parent="1" target="uijnXT37XZ_vpNT8AWCY-3">
          <mxGeometry width="50" height="50" relative="1" as="geometry">
            <mxPoint x="230" y="720" as="sourcePoint" />
            <mxPoint x="280" y="330" as="targetPoint" />
          </mxGeometry>
        </mxCell>
        <mxCell id="uijnXT37XZ_vpNT8AWCY-15" value="" style="endArrow=none;html=1;rounded=0;" edge="1" parent="1">
          <mxGeometry width="50" height="50" relative="1" as="geometry">
            <mxPoint x="230" y="720" as="sourcePoint" />
            <mxPoint x="310" y="490" as="targetPoint" />
          </mxGeometry>
        </mxCell>
        <mxCell id="uijnXT37XZ_vpNT8AWCY-16" value="" style="endArrow=none;html=1;rounded=0;entryX=0;entryY=0.5;entryDx=0;entryDy=0;" edge="1" parent="1" target="uijnXT37XZ_vpNT8AWCY-5">
          <mxGeometry width="50" height="50" relative="1" as="geometry">
            <mxPoint x="230" y="720" as="sourcePoint" />
            <mxPoint x="310" y="610" as="targetPoint" />
          </mxGeometry>
        </mxCell>
        <mxCell id="uijnXT37XZ_vpNT8AWCY-17" value="" style="endArrow=none;html=1;rounded=0;" edge="1" parent="1">
          <mxGeometry width="50" height="50" relative="1" as="geometry">
            <mxPoint x="230" y="720" as="sourcePoint" />
            <mxPoint x="310" y="730" as="targetPoint" />
          </mxGeometry>
        </mxCell>
        <mxCell id="uijnXT37XZ_vpNT8AWCY-18" value="" style="endArrow=none;html=1;rounded=0;entryX=0;entryY=0.5;entryDx=0;entryDy=0;" edge="1" parent="1" target="uijnXT37XZ_vpNT8AWCY-7">
          <mxGeometry width="50" height="50" relative="1" as="geometry">
            <mxPoint x="230" y="720" as="sourcePoint" />
            <mxPoint x="310" y="850" as="targetPoint" />
          </mxGeometry>
        </mxCell>
        <mxCell id="uijnXT37XZ_vpNT8AWCY-19" value="" style="endArrow=none;html=1;rounded=0;entryX=0;entryY=0.5;entryDx=0;entryDy=0;" edge="1" parent="1" target="uijnXT37XZ_vpNT8AWCY-8">
          <mxGeometry width="50" height="50" relative="1" as="geometry">
            <mxPoint x="230" y="720" as="sourcePoint" />
            <mxPoint x="310" y="960" as="targetPoint" />
          </mxGeometry>
        </mxCell>
        <mxCell id="uijnXT37XZ_vpNT8AWCY-20" value="" style="endArrow=none;html=1;rounded=0;" edge="1" parent="1">
          <mxGeometry width="50" height="50" relative="1" as="geometry">
            <mxPoint x="230" y="720" as="sourcePoint" />
            <mxPoint x="310" y="1090" as="targetPoint" />
          </mxGeometry>
        </mxCell>
        <mxCell id="uijnXT37XZ_vpNT8AWCY-21" value="" style="endArrow=none;html=1;rounded=0;" edge="1" parent="1">
          <mxGeometry width="50" height="50" relative="1" as="geometry">
            <mxPoint x="230" y="720" as="sourcePoint" />
            <mxPoint x="310" y="1210" as="targetPoint" />
          </mxGeometry>
        </mxCell>
        <mxCell id="uijnXT37XZ_vpNT8AWCY-22" value="" style="endArrow=none;html=1;rounded=0;" edge="1" parent="1">
          <mxGeometry width="50" height="50" relative="1" as="geometry">
            <mxPoint x="230" y="720" as="sourcePoint" />
            <mxPoint x="310" y="1330" as="targetPoint" />
          </mxGeometry>
        </mxCell>
      </root>
    </mxGraphModel>
  </diagram>
  <diagram id="5lRJC-rF6-htpgurElvy" name="Администратор">
    <mxGraphModel dx="1026" dy="673" grid="1" gridSize="10" guides="1" tooltips="1" connect="1" arrows="1" fold="1" page="1" pageScale="1" pageWidth="1200" pageHeight="1920" math="0" shadow="0">
      <root>
        <mxCell id="0" />
        <mxCell id="1" parent="0" />
        <mxCell id="Xbs92sC2PPo8YpDriiTb-2" value="Администратор" style="shape=umlActor;verticalLabelPosition=bottom;verticalAlign=top;html=1;outlineConnect=0;" vertex="1" parent="1">
          <mxGeometry x="110" y="270" width="100" height="200" as="geometry" />
        </mxCell>
        <mxCell id="tnBX8_Pk_nQAeXs3ztKu-1" value="Создание отчётов" style="ellipse;whiteSpace=wrap;html=1;" vertex="1" parent="1">
          <mxGeometry x="340" y="200" width="120" height="80" as="geometry" />
        </mxCell>
        <mxCell id="tnBX8_Pk_nQAeXs3ztKu-2" value="Мониторинг активности пользователей" style="ellipse;whiteSpace=wrap;html=1;" vertex="1" parent="1">
          <mxGeometry x="340" y="340" width="120" height="80" as="geometry" />
        </mxCell>
        <mxCell id="tnBX8_Pk_nQAeXs3ztKu-3" value="Обработка жалоб и сообщений пользователей" style="ellipse;whiteSpace=wrap;html=1;" vertex="1" parent="1">
          <mxGeometry x="340" y="480" width="120" height="80" as="geometry" />
        </mxCell>
        <mxCell id="tnBX8_Pk_nQAeXs3ztKu-4" value="" style="endArrow=none;html=1;rounded=0;entryX=0;entryY=0.5;entryDx=0;entryDy=0;" edge="1" parent="1" target="tnBX8_Pk_nQAeXs3ztKu-1">
          <mxGeometry width="50" height="50" relative="1" as="geometry">
            <mxPoint x="210" y="380" as="sourcePoint" />
            <mxPoint x="330" y="250" as="targetPoint" />
          </mxGeometry>
        </mxCell>
        <mxCell id="tnBX8_Pk_nQAeXs3ztKu-5" value="" style="endArrow=none;html=1;rounded=0;entryX=0;entryY=0.5;entryDx=0;entryDy=0;" edge="1" parent="1" target="tnBX8_Pk_nQAeXs3ztKu-2">
          <mxGeometry width="50" height="50" relative="1" as="geometry">
            <mxPoint x="210" y="380" as="sourcePoint" />
            <mxPoint x="300" y="330" as="targetPoint" />
          </mxGeometry>
        </mxCell>
        <mxCell id="tnBX8_Pk_nQAeXs3ztKu-6" value="" style="endArrow=none;html=1;rounded=0;entryX=0;entryY=0.5;entryDx=0;entryDy=0;" edge="1" parent="1" target="tnBX8_Pk_nQAeXs3ztKu-3">
          <mxGeometry width="50" height="50" relative="1" as="geometry">
            <mxPoint x="210" y="380" as="sourcePoint" />
            <mxPoint x="290" y="410" as="targetPoint" />
          </mxGeometry>
        </mxCell>
      </root>
    </mxGraphModel>
  </diagram>
</mxfile>
